<mxfile host="app.diagrams.net" modified="2021-12-03T06:06:00.109Z" agent="5.0 (Macintosh; Intel Mac OS X 10_15_7) AppleWebKit/537.36 (KHTML, like Gecko) Chrome/96.0.4664.55 Safari/537.36" etag="WrxoQ8Gr4UR-Hp4Ru1X_" version="15.8.6" type="github">
  <diagram name="Page-1" id="13e1069c-82ec-6db2-03f1-153e76fe0fe0">
    <mxGraphModel dx="946" dy="614" grid="1" gridSize="10" guides="1" tooltips="1" connect="1" arrows="1" fold="1" page="1" pageScale="1" pageWidth="1100" pageHeight="850" background="none" math="0" shadow="0">
      <root>
        <mxCell id="0" />
        <mxCell id="1" parent="0" />
        <mxCell id="R89YBkCyaEipsPVi2r1F-6" style="edgeStyle=orthogonalEdgeStyle;rounded=0;orthogonalLoop=1;jettySize=auto;html=1;exitX=1;exitY=0.5;exitDx=0;exitDy=0;entryX=0;entryY=0.25;entryDx=0;entryDy=0;" parent="1" source="R89YBkCyaEipsPVi2r1F-2" target="R89YBkCyaEipsPVi2r1F-3" edge="1">
          <mxGeometry relative="1" as="geometry" />
        </mxCell>
        <mxCell id="R89YBkCyaEipsPVi2r1F-2" value="" style="ellipse;fillColor=#000000;strokeColor=none;" parent="1" vertex="1">
          <mxGeometry x="40" y="112" width="30" height="30" as="geometry" />
        </mxCell>
        <mxCell id="R89YBkCyaEipsPVi2r1F-3" value="" style="rounded=1;whiteSpace=wrap;html=1;" parent="1" vertex="1">
          <mxGeometry x="200" y="110" width="20" height="70" as="geometry" />
        </mxCell>
        <mxCell id="R89YBkCyaEipsPVi2r1F-4" value="Менеджер пропозицій" style="rounded=1;whiteSpace=wrap;html=1;" parent="1" vertex="1">
          <mxGeometry x="310" y="20" width="120" height="60" as="geometry" />
        </mxCell>
        <mxCell id="R89YBkCyaEipsPVi2r1F-5" value="Користувач" style="shape=umlActor;verticalLabelPosition=bottom;verticalAlign=top;html=1;outlineConnect=0;" parent="1" vertex="1">
          <mxGeometry x="195" y="20" width="30" height="60" as="geometry" />
        </mxCell>
        <mxCell id="R89YBkCyaEipsPVi2r1F-7" value="&lt;font style=&quot;font-size: 10px&quot;&gt;Забронювати хостел&lt;/font&gt;" style="text;html=1;strokeColor=none;fillColor=none;align=center;verticalAlign=middle;whiteSpace=wrap;rounded=0;" parent="1" vertex="1">
          <mxGeometry x="80" y="100" width="100" height="30" as="geometry" />
        </mxCell>
        <mxCell id="R89YBkCyaEipsPVi2r1F-8" value="Оформлення бронювання" style="rounded=1;whiteSpace=wrap;html=1;" parent="1" vertex="1">
          <mxGeometry x="520" y="20" width="120" height="60" as="geometry" />
        </mxCell>
        <mxCell id="R89YBkCyaEipsPVi2r1F-14" value="" style="endArrow=none;startArrow=none;endFill=0;startFill=0;endSize=8;html=1;verticalAlign=bottom;dashed=1;labelBackgroundColor=none;dashPattern=10 10;rounded=0;fontSize=10;exitX=0.5;exitY=1;exitDx=0;exitDy=0;" parent="1" source="R89YBkCyaEipsPVi2r1F-3" edge="1">
          <mxGeometry width="160" relative="1" as="geometry">
            <mxPoint x="270" y="180" as="sourcePoint" />
            <mxPoint x="210" y="640" as="targetPoint" />
          </mxGeometry>
        </mxCell>
        <mxCell id="R89YBkCyaEipsPVi2r1F-16" value="Обрання хостелу" style="text;html=1;strokeColor=none;fillColor=none;align=center;verticalAlign=middle;whiteSpace=wrap;rounded=0;fontSize=10;" parent="1" vertex="1">
          <mxGeometry x="240" y="120" width="90" height="30" as="geometry" />
        </mxCell>
        <mxCell id="R89YBkCyaEipsPVi2r1F-17" value="Менеджер бронювань" style="rounded=1;whiteSpace=wrap;html=1;" parent="1" vertex="1">
          <mxGeometry x="730" y="20" width="120" height="60" as="geometry" />
        </mxCell>
        <mxCell id="R89YBkCyaEipsPVi2r1F-19" value="" style="endArrow=none;startArrow=none;endFill=0;startFill=0;endSize=8;html=1;verticalAlign=bottom;dashed=1;labelBackgroundColor=none;dashPattern=10 10;rounded=0;fontSize=10;exitX=0.5;exitY=1;exitDx=0;exitDy=0;" parent="1" source="R89YBkCyaEipsPVi2r1F-29" edge="1">
          <mxGeometry width="160" relative="1" as="geometry">
            <mxPoint x="369.65999999999997" y="130.0000000000001" as="sourcePoint" />
            <mxPoint x="370" y="640" as="targetPoint" />
          </mxGeometry>
        </mxCell>
        <mxCell id="R89YBkCyaEipsPVi2r1F-20" value="" style="endArrow=none;startArrow=none;endFill=0;startFill=0;endSize=8;html=1;verticalAlign=bottom;dashed=1;labelBackgroundColor=none;dashPattern=10 10;rounded=0;fontSize=10;exitX=0.5;exitY=1;exitDx=0;exitDy=0;" parent="1" source="R89YBkCyaEipsPVi2r1F-32" edge="1">
          <mxGeometry width="160" relative="1" as="geometry">
            <mxPoint x="579.66" y="80" as="sourcePoint" />
            <mxPoint x="580" y="640" as="targetPoint" />
          </mxGeometry>
        </mxCell>
        <mxCell id="R89YBkCyaEipsPVi2r1F-21" value="" style="endArrow=none;startArrow=none;endFill=0;startFill=0;endSize=8;html=1;verticalAlign=bottom;dashed=1;labelBackgroundColor=none;dashPattern=10 10;rounded=0;fontSize=10;exitX=0.5;exitY=1;exitDx=0;exitDy=0;" parent="1" edge="1">
          <mxGeometry width="160" relative="1" as="geometry">
            <mxPoint x="789.6600000000001" y="80" as="sourcePoint" />
            <mxPoint x="790" y="640" as="targetPoint" />
          </mxGeometry>
        </mxCell>
        <mxCell id="R89YBkCyaEipsPVi2r1F-23" value="&amp;lt;&amp;lt;Створення бронювання&amp;gt;&amp;gt;" style="text;html=1;strokeColor=none;fillColor=none;align=center;verticalAlign=middle;whiteSpace=wrap;rounded=0;fontSize=10;" parent="1" vertex="1">
          <mxGeometry x="400" y="150" width="150" height="30" as="geometry" />
        </mxCell>
        <mxCell id="R89YBkCyaEipsPVi2r1F-26" value="Оформлення бронювання" style="text;html=1;strokeColor=none;fillColor=none;align=center;verticalAlign=middle;whiteSpace=wrap;rounded=0;fontSize=10;" parent="1" vertex="1">
          <mxGeometry x="620" y="290" width="130" height="30" as="geometry" />
        </mxCell>
        <mxCell id="R89YBkCyaEipsPVi2r1F-29" value="" style="rounded=1;whiteSpace=wrap;html=1;" parent="1" vertex="1">
          <mxGeometry x="360" y="240" width="20" height="230" as="geometry" />
        </mxCell>
        <mxCell id="R89YBkCyaEipsPVi2r1F-30" value="" style="endArrow=none;startArrow=none;endFill=0;startFill=0;endSize=8;html=1;verticalAlign=bottom;dashed=1;labelBackgroundColor=none;dashPattern=10 10;rounded=0;fontSize=10;exitX=0.5;exitY=1;exitDx=0;exitDy=0;" parent="1" source="R89YBkCyaEipsPVi2r1F-4" target="R89YBkCyaEipsPVi2r1F-29" edge="1">
          <mxGeometry width="160" relative="1" as="geometry">
            <mxPoint x="370" y="80" as="sourcePoint" />
            <mxPoint x="370" y="590" as="targetPoint" />
          </mxGeometry>
        </mxCell>
        <mxCell id="R89YBkCyaEipsPVi2r1F-32" value="" style="rounded=1;whiteSpace=wrap;html=1;" parent="1" vertex="1">
          <mxGeometry x="570" y="240" width="20" height="230" as="geometry" />
        </mxCell>
        <mxCell id="R89YBkCyaEipsPVi2r1F-33" value="" style="endArrow=none;startArrow=none;endFill=0;startFill=0;endSize=8;html=1;verticalAlign=bottom;dashed=1;labelBackgroundColor=none;dashPattern=10 10;rounded=0;fontSize=10;exitX=0.5;exitY=1;exitDx=0;exitDy=0;" parent="1" target="R89YBkCyaEipsPVi2r1F-32" edge="1">
          <mxGeometry width="160" relative="1" as="geometry">
            <mxPoint x="579.6599999999999" y="80" as="sourcePoint" />
            <mxPoint x="579.6599999999999" y="590" as="targetPoint" />
          </mxGeometry>
        </mxCell>
        <mxCell id="R89YBkCyaEipsPVi2r1F-34" value="" style="rounded=1;whiteSpace=wrap;html=1;" parent="1" vertex="1">
          <mxGeometry x="780" y="240" width="20" height="230" as="geometry" />
        </mxCell>
        <mxCell id="R89YBkCyaEipsPVi2r1F-38" value="" style="html=1;verticalAlign=bottom;labelBackgroundColor=none;endArrow=open;endFill=0;dashed=1;rounded=0;fontSize=10;" parent="1" edge="1">
          <mxGeometry width="160" relative="1" as="geometry">
            <mxPoint x="220" y="144.66" as="sourcePoint" />
            <mxPoint x="370" y="145" as="targetPoint" />
          </mxGeometry>
        </mxCell>
        <mxCell id="R89YBkCyaEipsPVi2r1F-39" value="" style="html=1;verticalAlign=bottom;labelBackgroundColor=none;endArrow=open;endFill=0;dashed=1;rounded=0;fontSize=10;" parent="1" edge="1">
          <mxGeometry width="160" relative="1" as="geometry">
            <mxPoint x="370" y="179.99999999999997" as="sourcePoint" />
            <mxPoint x="580" y="180" as="targetPoint" />
          </mxGeometry>
        </mxCell>
        <mxCell id="R89YBkCyaEipsPVi2r1F-43" value="" style="endArrow=open;startArrow=none;endFill=0;startFill=0;endSize=8;html=1;verticalAlign=bottom;labelBackgroundColor=none;strokeWidth=1;rounded=0;fontSize=10;" parent="1" edge="1">
          <mxGeometry width="160" relative="1" as="geometry">
            <mxPoint x="380" y="304.65999999999997" as="sourcePoint" />
            <mxPoint x="570" y="304.65999999999997" as="targetPoint" />
          </mxGeometry>
        </mxCell>
        <mxCell id="R89YBkCyaEipsPVi2r1F-45" value="" style="endArrow=open;startArrow=none;endFill=0;startFill=0;endSize=8;html=1;verticalAlign=bottom;labelBackgroundColor=none;strokeWidth=1;rounded=0;fontSize=10;" parent="1" edge="1">
          <mxGeometry width="160" relative="1" as="geometry">
            <mxPoint x="590" y="319.99999999999994" as="sourcePoint" />
            <mxPoint x="779.9999999999998" y="319.99999999999994" as="targetPoint" />
          </mxGeometry>
        </mxCell>
        <mxCell id="R89YBkCyaEipsPVi2r1F-46" value="" style="endArrow=open;startArrow=none;endFill=0;startFill=0;endSize=8;html=1;verticalAlign=bottom;labelBackgroundColor=none;strokeWidth=1;rounded=0;fontSize=10;entryX=1;entryY=0.5;entryDx=0;entryDy=0;exitX=0;exitY=0.75;exitDx=0;exitDy=0;" parent="1" source="R89YBkCyaEipsPVi2r1F-32" target="R89YBkCyaEipsPVi2r1F-47" edge="1">
          <mxGeometry width="160" relative="1" as="geometry">
            <mxPoint x="400" y="324.65999999999997" as="sourcePoint" />
            <mxPoint x="589.9999999999998" y="324.65999999999997" as="targetPoint" />
          </mxGeometry>
        </mxCell>
        <mxCell id="R89YBkCyaEipsPVi2r1F-47" value="" style="rounded=1;whiteSpace=wrap;html=1;" parent="1" vertex="1">
          <mxGeometry x="370" y="378" width="20" height="70" as="geometry" />
        </mxCell>
        <mxCell id="R89YBkCyaEipsPVi2r1F-51" value="Перехід до оформлення бронювання" style="text;html=1;strokeColor=none;fillColor=none;align=center;verticalAlign=middle;whiteSpace=wrap;rounded=0;fontSize=10;" parent="1" vertex="1">
          <mxGeometry x="400" y="270" width="150" height="30" as="geometry" />
        </mxCell>
        <mxCell id="R89YBkCyaEipsPVi2r1F-53" value="" style="endArrow=open;startArrow=none;endFill=0;startFill=0;endSize=8;html=1;verticalAlign=bottom;labelBackgroundColor=none;strokeWidth=1;rounded=0;fontSize=10;entryX=0;entryY=0.5;entryDx=0;entryDy=0;" parent="1" target="R89YBkCyaEipsPVi2r1F-54" edge="1">
          <mxGeometry width="160" relative="1" as="geometry">
            <mxPoint x="790" y="610" as="sourcePoint" />
            <mxPoint x="920" y="610" as="targetPoint" />
          </mxGeometry>
        </mxCell>
        <mxCell id="R89YBkCyaEipsPVi2r1F-55" value="Оновлення пропозицій" style="edgeLabel;html=1;align=center;verticalAlign=middle;resizable=0;points=[];fontSize=10;" parent="R89YBkCyaEipsPVi2r1F-53" vertex="1" connectable="0">
          <mxGeometry x="-0.5072" y="-1" relative="1" as="geometry">
            <mxPoint x="28" y="-1" as="offset" />
          </mxGeometry>
        </mxCell>
        <mxCell id="R89YBkCyaEipsPVi2r1F-54" value="" style="ellipse;html=1;shape=endState;fillColor=#000000;strokeColor=#ff0000;fontSize=10;" parent="1" vertex="1">
          <mxGeometry x="920" y="595" width="30" height="30" as="geometry" />
        </mxCell>
        <mxCell id="NoJuaJC2dfi2t65BxnF3-1" value="loop" style="shape=umlFrame;whiteSpace=wrap;html=1;" vertex="1" parent="1">
          <mxGeometry x="130" y="200" width="740" height="320" as="geometry" />
        </mxCell>
      </root>
    </mxGraphModel>
  </diagram>
</mxfile>
